<mxfile host="app.diagrams.net" agent="Mozilla/5.0 (Windows NT 10.0; Win64; x64) AppleWebKit/537.36 (KHTML, like Gecko) Chrome/129.0.0.0 Safari/537.36" version="24.7.17">
  <diagram name="Page-1" id="r7dT-O8GW9QesFzvQpkW">
    <mxGraphModel dx="345" dy="1655" grid="1" gridSize="10" guides="1" tooltips="1" connect="1" arrows="1" fold="1" page="1" pageScale="1" pageWidth="827" pageHeight="1169" math="0" shadow="0">
      <root>
        <mxCell id="0" />
        <mxCell id="1" parent="0" />
        <mxCell id="YWFQruCCLUFbeTypSdhy-1" value="" style="html=1;overflow=block;blockSpacing=1;whiteSpace=wrap;shape=image;fontSize=13;spacing=0;strokeColor=none;strokeOpacity=100;rounded=1;absoluteArcSize=1;arcSize=9;strokeWidth=0;image=https://images.lucid.app/images/ed388841-b973-405b-a6d8-33d4dcf134ee/content;imageAspect=0;lucidId=V0jgvHH-pum8;" vertex="1" parent="1">
          <mxGeometry x="1360" y="-790" width="260" height="160" as="geometry" />
        </mxCell>
        <mxCell id="YWFQruCCLUFbeTypSdhy-2" value="" style="rounded=0;whiteSpace=wrap;html=1;" vertex="1" parent="1">
          <mxGeometry x="1060" y="-560" width="270" height="30" as="geometry" />
        </mxCell>
        <mxCell id="YWFQruCCLUFbeTypSdhy-3" value="" style="endArrow=none;html=1;rounded=0;" edge="1" parent="1">
          <mxGeometry width="50" height="50" relative="1" as="geometry">
            <mxPoint x="1110" y="-560" as="sourcePoint" />
            <mxPoint x="1110" y="-630" as="targetPoint" />
          </mxGeometry>
        </mxCell>
      </root>
    </mxGraphModel>
  </diagram>
</mxfile>
